<?xml version="1.0" encoding="utf-8"?>
<!-- Generator: Adobe Illustrator 16.0.0, SVG Export Plug-In . SVG Version: 6.00 Build 0)  -->
<!DOCTYPE svg PUBLIC "-//W3C//DTD SVG 1.1//EN" "http://www.w3.org/Graphics/SVG/1.1/DTD/svg11.dtd">
<svg version="1.1" id="Layer_1" xmlns="http://www.w3.org/2000/svg" xmlns:xlink="http://www.w3.org/1999/xlink" x="0px" y="0px"
	 width="611.834px" height="706.506px" viewBox="0.083 42.123 611.834 706.506"
	 enable-background="new 0.083 42.123 611.834 706.506" xml:space="preserve">
<polygon id="fill" fill="#FFFFFF" points="611.917,572.053 305.999,748.657 0.083,572.05 0.083,218.756 305.999,42.151 
	611.917,218.756 "/>
<linearGradient id="gradient_1_" gradientUnits="userSpaceOnUse" x1="305.6709" y1="404.7256" x2="305.6709" y2="134.4175" gradientTransform="matrix(1 0 0 1 0 -80)">
	<stop  offset="0" style="stop-color:#FFFFFF;stop-opacity:0"/>
	<stop  offset="1" style="stop-color:#FFFFFF"/>
</linearGradient>
<path id="gradient" opacity="0.2" fill="url(#gradient_1_)" d="M305.591,54.417L59.22,197.048
	c36.979,74.535,133.292,127.677,246.28,127.677c113.336,0,209.895-53.47,246.621-128.366L305.591,54.417z"/>
<path id="outline" d="M587.52,204.656L356.209,71.099L306,42.123l-50.209,28.976L24.48,204.656L0.083,218.728v353.293l24.396,14.071
	l234.142,135.225L306,748.629l47.378-27.312L587.52,586.095l24.397-14.07V218.728L587.52,204.656z M587.52,558.783L306,721.317
	L24.48,558.783v-325.15L306,71.099l0,0l281.52,162.534V558.783z"/>
<g>
	<path d="M336.54,321.439c0-1.26,0.885-2.399,2.655-3.42c1.769-1.02,3.466-1.53,5.085-1.53c1.74,0,2.881,0.661,3.42,1.98l9.99,26.1
		l9.99-25.92c0.54-1.44,1.649-2.16,3.33-2.16c1.439,0,3.09,0.526,4.949,1.575c1.859,1.051,2.791,2.205,2.791,3.465
		c0,0.54-0.121,1.051-0.36,1.53l-15.39,35.639c-0.662,1.381-2.431,2.07-5.311,2.07s-4.621-0.689-5.22-2.07l-15.479-35.639
		C336.689,322.64,336.54,322.1,336.54,321.439z"/>
	<path d="M383.159,302.359c0-1.412,0.637-2.62,1.913-3.624c1.274-1.004,2.845-1.506,4.712-1.506c1.676,0,3.105,0.502,4.289,1.506
		s1.776,2.212,1.776,3.624c0,1.358-0.593,2.553-1.776,3.583c-1.184,1.032-2.613,1.547-4.289,1.547c-1.867,0-3.438-0.515-4.712-1.547
		C383.796,304.912,383.159,303.717,383.159,302.359z M384.239,356.089v-35.46c0-1.08,0.52-1.948,1.557-2.609
		c1.038-0.66,2.365-0.99,3.98-0.99c1.613,0,2.955,0.33,4.023,0.99c1.065,0.661,1.6,1.529,1.6,2.609v35.46
		c0,0.9-0.563,1.74-1.688,2.52c-1.125,0.781-2.438,1.17-3.936,1.17c-1.559,0-2.871-0.373-3.937-1.125
		C384.772,357.903,384.239,357.05,384.239,356.089z"/>
	<path d="M404.309,345.369v-43.142c0-1.007,0.599-1.853,1.8-2.534c1.199-0.683,2.52-1.024,3.96-1.024
		c1.56,0,2.925,0.332,4.095,0.996s1.756,1.486,1.756,2.468v14.896h10.619c0.9,0,1.62,0.457,2.16,1.368s0.811,1.985,0.811,3.222
		c0,1.237-0.271,2.313-0.811,3.224s-1.26,1.366-2.16,1.366h-10.619v18.769c0,1.656,0.373,2.827,1.125,3.514
		c0.749,0.687,2.055,1.028,3.914,1.028h3.51c1.561,0,2.775,0.502,3.646,1.506c0.869,1.004,1.306,2.196,1.306,3.578
		c0,1.443-0.437,2.666-1.306,3.67c-0.87,1.004-2.085,1.506-3.646,1.506h-3.51C409.857,359.778,404.309,354.976,404.309,345.369z"/>
	<path d="M433.106,348.249c0-4.724,1.801-8.048,5.4-9.973c3.6-1.924,8.789-2.887,15.57-2.887h3.689v-1.204
		c0-2.282-0.645-4.272-1.935-5.97c-1.291-1.697-3.285-2.547-5.985-2.547c-2.699,0-5.01,0.511-6.93,1.53
		c-1.921,1.021-3.03,1.53-3.33,1.53c-1.201,0-2.16-0.6-2.88-1.8s-1.08-2.521-1.08-3.96c0-1.74,1.544-3.255,4.635-4.546
		c3.09-1.289,6.345-1.935,9.765-1.935c6.539,0,11.399,1.665,14.58,4.995c3.18,3.33,4.771,7.515,4.771,12.555v22.05
		c0,1.021-0.54,1.891-1.62,2.609c-1.08,0.721-2.43,1.08-4.05,1.08c-1.501,0-2.745-0.383-3.735-1.154
		c-0.99-0.77-1.484-1.699-1.484-2.789v-2.791c-4.141,5.031-8.701,7.544-13.68,7.544c-3.421,0-6.227-1.051-8.416-3.154
		C434.201,355.333,433.106,352.271,433.106,348.249z M444.717,346.797c0,1.539,0.435,2.692,1.306,3.46
		c0.869,0.768,2.024,1.151,3.465,1.151c1.919,0,3.779-0.854,5.58-2.561c1.8-1.707,2.699-3.586,2.699-5.637v-1.793h-1.35
		c-3.66,0-6.525,0.356-8.596,1.067C445.752,343.198,444.717,344.635,444.717,346.797z"/>
	<path d="M476.396,342.139v-7.65c0-4.919,1.919-9.149,5.761-12.69c3.838-3.539,8.488-5.31,13.949-5.31
		c5.1,0,9.465,1.613,13.096,4.838c3.629,3.225,5.444,7.277,5.444,12.159c0,1.783-0.226,3.253-0.675,4.412
		c-0.45,1.158-1.141,1.976-2.07,2.451c-0.931,0.475-1.785,0.773-2.564,0.891c-0.781,0.12-1.801,0.179-3.061,0.179h-18.27v1.351
		c0,2.58,0.959,4.666,2.88,6.255c1.919,1.591,4.469,2.385,7.649,2.385c2.279,0,4.529-0.569,6.75-1.71
		c2.22-1.139,3.66-1.71,4.32-1.71c1.26,0,2.309,0.585,3.15,1.755c0.84,1.17,1.26,2.295,1.26,3.375c0,1.681-1.516,3.345-4.545,4.996
		c-3.031,1.65-6.795,2.475-11.295,2.475c-6.421,0-11.655-1.695-15.705-5.086C478.421,352.115,476.396,347.66,476.396,342.139z
		 M488.007,334.579h13.14c0.959,0,1.634-0.153,2.024-0.463c0.391-0.308,0.586-0.909,0.586-1.807c0-1.96-0.766-3.558-2.295-4.791
		c-1.53-1.231-3.406-1.85-5.625-1.85c-2.102,0-3.931,0.604-5.49,1.808c-1.561,1.205-2.34,2.788-2.34,4.749V334.579z"/>
</g>
<path d="M112.925,375.464h6.788c12.419,28.409,40.677,48.269,73.66,48.269s61.241-19.859,73.66-48.269h6.787
	c4.424,0,8.046-3.619,8.046-8.045v-48.268c0-4.425-3.622-8.045-8.046-8.045h-6.787c-12.419-28.408-40.677-48.269-73.66-48.269
	s-61.241,19.861-73.66,48.269h-6.788c-4.425,0-8.045,3.62-8.045,8.045v48.268C104.88,371.845,108.5,375.464,112.925,375.464z
	 M133.037,331.218c0-11.111,10.811-20.112,24.135-20.112h72.402c13.324,0,24.135,9.001,24.135,20.112v12.067
	c0,26.649-21.621,48.27-48.27,48.27h-24.134c-26.648,0-48.269-21.62-48.269-48.27V331.218z M169.239,367.419l6.033-18.1
	l18.101-6.034l-18.101-6.033l-6.033-18.101l-6.034,18.101l-18.101,6.033l18.101,6.034L169.239,367.419z M245.463,424.437
	c-15.034,9.704-32.882,15.386-52.09,15.386s-37.057-5.682-52.09-15.386c-33.939,3.571-60.537,31.979-60.537,66.872v4.827
	c0,13.325,10.81,24.135,24.134,24.135h40.224v-32.179c0-8.9,7.19-16.09,16.089-16.09h64.359c8.899,0,16.089,7.189,16.089,16.09
	v32.179h40.225c13.324,0,24.134-10.81,24.134-24.135v-4.827C306,456.415,279.402,428.008,245.463,424.437z M217.507,488.092
	c-4.424,0-8.044,3.621-8.044,8.044c0,4.425,3.62,8.046,8.044,8.046c4.425,0,8.045-3.621,8.045-8.046
	C225.552,491.713,221.932,488.092,217.507,488.092z M169.239,488.092c-4.425,0-8.045,3.621-8.045,8.044v24.135h16.09v-24.135
	C177.283,491.713,173.663,488.092,169.239,488.092z"/>
<path fill="none" stroke="#000000" stroke-width="7.1971" stroke-miterlimit="10" d="M543.137,541.087
	c0,5.574-5.169,10.094-11.546,10.094H80.409c-6.376,0-11.546-4.52-11.546-10.094V249.664c0-5.574,5.17-10.093,11.546-10.093h451.182
	c6.377,0,11.546,4.519,11.546,10.093V541.087z"/>
<path d="M514.417,417.804c0,6.627-4.261,12-9.516,12H345.516c-5.256,0-9.516-5.373-9.516-12v-3c0-6.627,4.26-12,9.516-12h159.386
	c5.255,0,9.516,5.373,9.516,12V417.804z"/>
<path d="M514.417,459.804c0,6.627-4.261,12-9.516,12H345.516c-5.256,0-9.516-5.373-9.516-12v-3c0-6.627,4.26-12,9.516-12h159.386
	c5.255,0,9.516,5.373,9.516,12V459.804z"/>
<path d="M514.417,501.804c0,6.627-4.261,12-9.516,12H345.516c-5.256,0-9.516-5.373-9.516-12v-3c0-6.627,4.26-12,9.516-12h159.386
	c5.255,0,9.516,5.373,9.516,12V501.804z"/>
</svg>
